<?xml version="1.0" encoding="utf-8"?>
<!-- Generator: Adobe Illustrator 21.1.0, SVG Export Plug-In . SVG Version: 6.00 Build 0)  -->
<svg version="1.1" id="Layer_1" xmlns="http://www.w3.org/2000/svg" xmlns:xlink="http://www.w3.org/1999/xlink" x="0px" y="0px"
	 viewBox="0 0 123 53.5" style="enable-background:new 0 0 123 53.5;" xml:space="preserve">
<style type="text/css">
	.st0{fill:#FFFFFF;}
</style>
<g>
	<g>
		<path class="st0" d="M54.4,42.9c-3.9,0-7.2-1.3-9.7-3.9v14.5H36V25.3c0-9.6,7.1-17.5,17.2-17.5c10.1,0,17.2,7.9,17.2,17.5
			C70.4,35,63.3,42.9,54.4,42.9z M53.3,15.8c-4.7,0-8.6,4.2-8.6,9.4c0,5.3,3.8,9.6,8.6,9.6c4.7,0,8.6-4.2,8.6-9.6
			C61.8,19.9,58,15.8,53.3,15.8z"/>
		<path class="st0" d="M123,42.1h-8.1v-3.5c-2.5,2.8-6.2,4.2-10.2,4.2c-8.8,0-16.1-7.8-16.1-17.4c0-9.7,7.1-17.6,17.2-17.6
			c10.1,0,17.2,7.9,17.2,17.6V42.1z M105.8,15.8c-4.7,0-8.6,4.1-8.6,9.6c0,5.3,3.8,9.4,8.6,9.4c4.7,0,8.6-4.2,8.6-9.4
			C114.4,20.1,110.6,15.8,105.8,15.8z"/>
		<path class="st0" d="M85.4,42.2c-8.4,0-12.8-5.7-12.8-14.2V0h8.6v8.6h5.2v7.6h-5.2v11.9c0,4.7,2.2,6.5,6.4,6.2
			c2.3,4.6,5.5,7.1,5.5,7.1C89.3,42.4,85.4,42.2,85.4,42.2z"/>
	</g>
	<g>
		<path class="st0" d="M34.1,25.4c0,10.1-7.7,17.7-17.1,17.7c-9.4,0-17-7.6-17-17.7C0,15.2,7.6,7.5,17,7.5
			C26.4,7.5,34.1,15.2,34.1,25.4z M25.4,25.4c0-5.9-3.7-9.9-8.4-9.9c-4.6,0-8.4,4.1-8.4,9.9c0,5.7,3.7,9.7,8.4,9.7
			C21.6,35.1,25.4,31.2,25.4,25.4z"/>
	</g>
</g>
</svg>
